<svg xmlns="http://www.w3.org/2000/svg" width="96" height="48" viewBox="0 0 96 48">
  <defs>
    <linearGradient id="drillBody" x1="0" y1="0" x2="1" y2="1">
      <stop offset="0" stop-color="#344766"/>
      <stop offset="1" stop-color="#162033"/>
    </linearGradient>
    <linearGradient id="wallBody" x1="0" y1="0" x2="1" y2="1">
      <stop offset="0" stop-color="#8591a3"/>
      <stop offset="1" stop-color="#3a4656"/>
    </linearGradient>
  </defs>
  <g transform="translate(0 0)">
    <rect x="10" y="8" width="28" height="19" rx="5" fill="url(#drillBody)" stroke="#8bd7ff" stroke-width="2.5"/>
    <rect x="14" y="12" width="20" height="6" rx="3" fill="#172437" stroke="#5ea7cf" stroke-width="1.5"/>
    <circle cx="18" cy="31" r="5" fill="#ff4f7c" stroke="#ffd3de" stroke-width="2"/>
    <circle cx="30" cy="31" r="5" fill="#ff4f7c" stroke="#ffd3de" stroke-width="2"/>
    <path d="M24 24 31 34 24 44 17 34Z" fill="#69c8e8" stroke="#d9f6ff" stroke-width="2" stroke-linejoin="round"/>
    <path d="M20 34h8M22 29h4M22 39h4" stroke="#1d5372" stroke-width="2" stroke-linecap="round"/>
  </g>
  <g transform="translate(48 0)">
    <rect x="5" y="9" width="38" height="30" rx="6" fill="url(#wallBody)" stroke="#d5dee8" stroke-width="2"/>
    <path d="M10 17h28M10 28h28M19 10v28M30 10v28" stroke="#2b3544" stroke-width="2" opacity=".65"/>
    <path d="M11 14h26" stroke="#f3f7fb" stroke-width="2" stroke-linecap="round" opacity=".45"/>
  </g>
</svg>
