<svg xmlns="http://www.w3.org/2000/svg" width="240" height="48" viewBox="0 0 240 48">
  <defs>
    <linearGradient id="base" x1="0" y1="0" x2="1" y2="1">
      <stop offset="0" stop-color="#2d3e58"/>
      <stop offset="1" stop-color="#121b2b"/>
    </linearGradient>
  </defs>
  <g fill="none" stroke-linecap="round" stroke-linejoin="round">
    <g transform="translate(0 0)">
      <circle cx="24" cy="28" r="13" fill="url(#base)" stroke="#7bdff2" stroke-width="2"/>
      <path d="M24 27 37 19" stroke="#d7e4f2" stroke-width="5"/>
      <circle cx="24" cy="28" r="5" fill="#ffd166"/>
    </g>
    <g transform="translate(48 0)">
      <circle cx="24" cy="28" r="13" fill="url(#base)" stroke="#42f5a7" stroke-width="2"/>
      <path d="M24 27 39 18M24 31 39 26" stroke="#d7e4f2" stroke-width="4"/>
      <circle cx="24" cy="28" r="5" fill="#42f5a7"/>
    </g>
    <g transform="translate(96 0)">
      <circle cx="24" cy="28" r="14" fill="url(#base)" stroke="#ffd166" stroke-width="2"/>
      <path d="M24 27 40 17M24 31 41 26M22 24 36 12" stroke="#e8eef7" stroke-width="3.5"/>
      <circle cx="24" cy="28" r="5" fill="#ffd166"/>
    </g>
    <g transform="translate(144 0)">
      <circle cx="24" cy="28" r="14" fill="url(#base)" stroke="#ff8da1" stroke-width="2"/>
      <path d="M24 26 42 16M24 30 43 25M21 23 38 11" stroke="#f4f8ff" stroke-width="4"/>
      <circle cx="24" cy="28" r="6" fill="#ff8da1"/>
    </g>
    <g transform="translate(192 0)">
      <circle cx="24" cy="28" r="15" fill="url(#base)" stroke="#b5a7ff" stroke-width="2"/>
      <path d="M24 24 43 11M24 28 44 20M24 32 43 29" stroke="#ffffff" stroke-width="4"/>
      <circle cx="24" cy="28" r="6" fill="#b5a7ff"/>
    </g>
  </g>
</svg>
